<svg width="52" height="21" viewBox="0 0 52 21" fill="none" xmlns="http://www.w3.org/2000/svg">
<rect x="0.396118" y="0.389648" width="51" height="20" rx="2" fill="#FF0150"/>
<path d="M16.046 14.8286H7.19096V13.9156H10.502V10.5606H11.624V13.9156H16.046V14.8286ZM14.946 7.39265C14.946 9.88598 14.803 11.7193 14.517 12.8926L13.439 12.7276C13.6883 11.613 13.813 10.139 13.813 8.30565H8.21396V7.39265H14.946ZM21.6695 7.48065C21.6622 10.678 20.2139 13.0356 17.3245 14.5536L16.5985 13.7396C18.1239 13.043 19.2165 12.0273 19.8765 10.6926L17.0055 11.0006L16.8295 10.0216L20.2505 9.76865C20.3825 9.29198 20.4632 8.83365 20.4925 8.39365H17.3245V7.48065H21.6695ZM24.3205 6.45765V10.2856H25.8385V11.2206H24.3205V16.2586H23.1875V6.45765H24.3205ZM30.1641 9.15265L29.8671 12.8816C30.2778 12.8596 30.6481 12.823 30.9781 12.7716L31.0881 13.6516C29.6581 13.8496 28.0375 13.956 26.2261 13.9706L26.0721 13.0356C26.5341 13.0356 26.8935 13.032 27.1501 13.0246L26.8971 9.17465L27.9641 9.05365L28.1401 12.9916L28.8221 12.9586H28.8551L29.0641 9.07565L30.1641 9.15265ZM32.6721 15.7856H31.5941V11.2096H30.4941V10.2746H31.5941V6.66665H32.6721V15.7856ZM34.4871 16.2586H33.4091V6.45765H34.4871V16.2586ZM30.8021 8.51465H26.2921V7.61265H30.8021V8.51465ZM43.8067 13.5636H42.6847V6.45765H43.8067V13.5636ZM44.0377 15.9726H37.3277V12.8926H38.4497V15.0706H44.0377V15.9726ZM40.3527 7.85465C40.822 8.30198 41.0567 8.87765 41.0567 9.58165C41.0567 10.2856 40.822 10.8613 40.3527 11.3086C39.8907 11.756 39.2894 11.9796 38.5487 11.9796C37.8007 11.9796 37.192 11.756 36.7227 11.3086C36.2534 10.8613 36.0187 10.2893 36.0187 9.59265C36.0187 8.88865 36.2534 8.31298 36.7227 7.86565C37.192 7.41098 37.8007 7.18365 38.5487 7.18365C39.2894 7.18365 39.8907 7.40731 40.3527 7.85465ZM39.9347 9.58165C39.9347 9.14898 39.81 8.79698 39.5607 8.52565C39.3114 8.25431 38.974 8.11865 38.5487 8.11865C38.138 8.11865 37.8007 8.25798 37.5367 8.53665C37.28 8.80798 37.1517 9.15631 37.1517 9.58165C37.1517 9.99231 37.28 10.337 37.5367 10.6156C37.8007 10.887 38.138 11.0226 38.5487 11.0226C38.9667 11.0226 39.3004 10.887 39.5497 10.6156C39.8064 10.337 39.9347 9.99231 39.9347 9.58165Z" fill="#F5F5F5"/>
</svg>
