<svg width="37" height="49" viewBox="0 0 37 49" fill="none" xmlns="http://www.w3.org/2000/svg">
<rect x="9.39603" y="18.2915" width="14" height="14.0828" stroke="black"/>
<path d="M19.432 18.2296H13.3407L13.9794 16.4053H18.7944L19.432 18.2296Z" stroke="black" stroke-miterlimit="10"/>
<rect x="18.4503" y="22.3896" width="14" height="14" fill="#FF0150"/>
<path d="M25.4599 32.1196C24.2179 32.1196 23.2459 31.2736 23.2459 29.2306V28.7266C23.2459 26.5936 24.2809 25.8736 25.4689 25.8736C26.6479 25.8736 27.6199 26.5936 27.6199 28.6906V29.2396C27.6199 31.2826 26.6839 32.1196 25.4599 32.1196ZM25.4599 31.5256C26.3869 31.5256 26.8909 30.8956 26.8909 29.3476V28.6816C26.8909 27.1606 26.3959 26.4676 25.4689 26.4676C24.5239 26.4676 24.0109 27.1246 24.0109 28.6366V29.3026C24.0109 30.8056 24.5149 31.5256 25.4599 31.5256Z" fill="white"/>
</svg>
