<svg width="33" height="21" viewBox="0 0 33 21" fill="none" xmlns="http://www.w3.org/2000/svg">
<rect x="0.396118" y="0.389648" width="32" height="20" rx="2" fill="#53575A"/>
<path d="M15.0625 8.95465C15.0625 9.60731 14.7509 10.1316 14.1275 10.5276C13.5115 10.9163 12.6755 11.1106 11.6195 11.1106C10.5709 11.1106 9.73487 10.9163 9.11154 10.5276C8.48821 10.1316 8.17654 9.60731 8.17654 8.95465C8.17654 8.31665 8.48821 7.80331 9.11154 7.41465C9.73487 7.01865 10.5709 6.82065 11.6195 6.82065C12.6682 6.82065 13.5042 7.01865 14.1275 7.41465C14.7509 7.80331 15.0625 8.31665 15.0625 8.95465ZM12.1805 16.2696H11.0585V12.9366H7.20854V12.0236H16.0635V12.9366H12.1805V16.2696ZM13.2805 9.83465C13.6912 9.60732 13.8965 9.31398 13.8965 8.95465C13.8965 8.59531 13.6875 8.30198 13.2695 8.07465C12.8589 7.84731 12.3089 7.73365 11.6195 7.73365C10.9302 7.73365 10.3765 7.84731 9.95854 8.07465C9.54787 8.30198 9.34254 8.59531 9.34254 8.95465C9.34254 9.31398 9.54787 9.60732 9.95854 9.83465C10.3692 10.062 10.9229 10.1756 11.6195 10.1756C12.3162 10.1756 12.8699 10.062 13.2805 9.83465ZM24.5801 8.95465C24.5801 9.60731 24.2685 10.1316 23.6451 10.5276C23.0291 10.9163 22.1931 11.1106 21.1371 11.1106C20.0885 11.1106 19.2525 10.9163 18.6291 10.5276C18.0058 10.1316 17.6941 9.60731 17.6941 8.95465C17.6941 8.31665 18.0058 7.80331 18.6291 7.41465C19.2525 7.01865 20.0885 6.82065 21.1371 6.82065C22.1858 6.82065 23.0218 7.01865 23.6451 7.41465C24.2685 7.80331 24.5801 8.31665 24.5801 8.95465ZM20.0151 16.2476H18.8931V12.9146H16.7261V12.0126H25.5811V12.9146H23.3811V16.2476H22.2591V12.9146H20.0151V16.2476ZM22.7981 9.83465C23.2088 9.60732 23.4141 9.31398 23.4141 8.95465C23.4141 8.59531 23.2051 8.30198 22.7871 8.07465C22.3765 7.84731 21.8265 7.73365 21.1371 7.73365C20.4478 7.73365 19.8941 7.84731 19.4761 8.07465C19.0655 8.30198 18.8601 8.59531 18.8601 8.95465C18.8601 9.31398 19.0655 9.60732 19.4761 9.83465C19.8868 10.062 20.4405 10.1756 21.1371 10.1756C21.8338 10.1756 22.3875 10.062 22.7981 9.83465Z" fill="#F5F5F5"/>
</svg>
