<svg width="25" height="43" viewBox="0 0 25 43" fill="none" xmlns="http://www.w3.org/2000/svg">
<path d="M5.84215 37.0878V29.7068H7.14015L9.27415 35.9438H9.29615L11.4191 29.7068H12.7061V37.0878H11.8261V30.8508H11.7931L9.63715 37.0878H8.82315L6.68915 30.8508H6.65615V37.0878H5.84215ZM16.28 37.0878V34.1838L13.849 29.7068H14.773L16.742 33.3698H16.764L18.722 29.7068H19.558L17.138 34.1838V37.0878H16.28Z" fill="white"/>
<path d="M11.6824 9.94922H18.5394L16.5304 23.072H11.6824M13.1099 9.94922H6.25296L8.26196 23.072H13.1099" stroke="white" stroke-linejoin="round"/>
<path d="M6.25296 7.59484C6.25296 6.43449 6.92204 5.4917 7.74924 5.4917H17.0431C17.8703 5.4917 18.5394 6.43449 18.5394 7.59484" stroke="white" stroke-miterlimit="10"/>
<path d="M19.1772 7.92529H5.61521C5.36128 7.92529 5.15543 8.22863 5.15543 8.60281V9.64689C5.15543 10.0211 5.36128 10.3244 5.61521 10.3244H19.1772C19.4311 10.3244 19.6369 10.0211 19.6369 9.64689V8.60281C19.6369 8.22863 19.4311 7.92529 19.1772 7.92529Z" stroke="white" stroke-miterlimit="10"/>
<path d="M7.86597 1.70752L9.95566 3.30813V5.26441" stroke="white" stroke-linecap="round" stroke-linejoin="round"/>
</svg>
