<svg width="29" height="16" viewBox="0 0 29 16" fill="none" xmlns="http://www.w3.org/2000/svg">
<rect x="0.396149" y="0.389648" width="28" height="15" rx="2" fill="black"/>
<path d="M5.50615 11.9696V5.25965H7.55615C9.00282 5.25965 9.72615 5.82298 9.72615 6.94965C9.72615 7.70298 9.35282 8.18965 8.60615 8.40965V8.45965C9.55282 8.61298 10.0261 9.15298 10.0261 10.0796C10.0261 10.653 9.82948 11.113 9.43615 11.4596C9.04948 11.7996 8.48948 11.9696 7.75615 11.9696H5.50615ZM6.29615 11.3096H7.70615C8.69282 11.3096 9.18615 10.883 9.18615 10.0296C9.18615 9.22298 8.66615 8.81965 7.62615 8.81965H6.29615V11.3096ZM6.29615 8.18965H7.44615C8.42615 8.18965 8.91615 7.80631 8.91615 7.03965C8.91615 6.63298 8.79948 6.34631 8.56615 6.17965C8.33948 6.01298 7.98282 5.92965 7.49615 5.92965H6.29615V8.18965ZM13.5755 12.0596C12.8089 12.0596 12.2255 11.8396 11.8255 11.3996C11.4255 10.9596 11.2255 10.3463 11.2255 9.55965V9.41965C11.2255 8.59965 11.4322 7.97965 11.8455 7.55965C12.2589 7.13298 12.7722 6.91965 13.3855 6.91965C14.7189 6.91965 15.3855 7.69631 15.3855 9.24965V9.67965H12.0055C12.0255 10.2863 12.1755 10.7263 12.4555 10.9996C12.7355 11.2663 13.1489 11.3996 13.6955 11.3996C14.2022 11.3996 14.7189 11.2763 15.2455 11.0296V11.5996C14.8055 11.9063 14.2489 12.0596 13.5755 12.0596ZM13.3655 7.53965C13.0122 7.53965 12.7055 7.65965 12.4455 7.89965C12.1922 8.13965 12.0455 8.52965 12.0055 9.06965H14.5855C14.5855 8.53631 14.4855 8.14965 14.2855 7.90965C14.0855 7.66298 13.7789 7.53965 13.3655 7.53965ZM18.0955 12.0496C17.4422 12.0496 16.9089 11.933 16.4955 11.6996V11.0896C16.7022 11.1696 16.8489 11.223 16.9355 11.2496C17.0222 11.2763 17.1622 11.3096 17.3555 11.3496C17.5555 11.383 17.7655 11.3996 17.9855 11.3996C18.7255 11.3996 19.0955 11.1563 19.0955 10.6696C19.0955 10.443 19.0322 10.2696 18.9055 10.1496C18.7789 10.0296 18.5555 9.92298 18.2355 9.82965L17.7455 9.69965C17.3455 9.58631 17.0422 9.42965 16.8355 9.22965C16.6355 9.02298 16.5355 8.72298 16.5355 8.32965C16.5355 7.89631 16.6789 7.55298 16.9655 7.29965C17.2522 7.04631 17.6722 6.91965 18.2255 6.91965C18.7655 6.91965 19.2155 7.01631 19.5755 7.20965V7.82965C19.2289 7.65631 18.7922 7.56965 18.2655 7.56965C17.5989 7.56965 17.2655 7.79965 17.2655 8.25965C17.2655 8.47298 17.3189 8.63298 17.4255 8.73965C17.5389 8.84632 17.7322 8.93965 18.0055 9.01965L18.5055 9.15965C18.9989 9.28631 19.3455 9.45298 19.5455 9.65965C19.7455 9.85965 19.8455 10.1696 19.8455 10.5896C19.8455 11.0563 19.6889 11.4163 19.3755 11.6696C19.0689 11.923 18.6422 12.0496 18.0955 12.0496ZM22.8559 12.0296C21.9959 12.0296 21.5659 11.6363 21.5659 10.8496V7.64965H20.8559V7.01965H21.5659V5.83965H22.3259V7.01965H23.5959V7.64965H22.3259V10.7296C22.3259 10.9763 22.3759 11.1496 22.4759 11.2496C22.5826 11.3496 22.7759 11.3996 23.0559 11.3996C23.2826 11.3996 23.4959 11.3696 23.6959 11.3096V11.8296C23.4026 11.963 23.1226 12.0296 22.8559 12.0296Z" fill="white"/>
</svg>
