<svg width="29" height="16" viewBox="0 0 29 16" fill="none" xmlns="http://www.w3.org/2000/svg">
<rect x="0.396149" y="0.389648" width="28" height="15" rx="2" fill="#D50037"/>
<path d="M5.50615 11.9696V5.25965H6.44615L9.67615 10.6296H9.70615V5.25965H10.4261V11.9696H9.60615L6.27615 6.33965H6.24615V11.9696H5.50615ZM14.3763 12.0596C13.6096 12.0596 13.0263 11.8396 12.6263 11.3996C12.2263 10.9596 12.0263 10.3463 12.0263 9.55965V9.41965C12.0263 8.59965 12.233 7.97965 12.6463 7.55965C13.0596 7.13298 13.573 6.91965 14.1863 6.91965C15.5196 6.91965 16.1863 7.69631 16.1863 9.24965V9.67965H12.8063C12.8263 10.2863 12.9763 10.7263 13.2563 10.9996C13.5363 11.2663 13.9496 11.3996 14.4963 11.3996C15.003 11.3996 15.5196 11.2763 16.0463 11.0296V11.5996C15.6063 11.9063 15.0496 12.0596 14.3763 12.0596ZM14.1663 7.53965C13.813 7.53965 13.5063 7.65965 13.2463 7.89965C12.993 8.13965 12.8463 8.52965 12.8063 9.06965H15.3863C15.3863 8.53631 15.2863 8.14965 15.0863 7.90965C14.8863 7.66298 14.5796 7.53965 14.1663 7.53965ZM18.5963 11.9696L17.1863 7.00965H18.0063L19.0263 10.9796H19.0663L20.2563 7.00965H20.9163L22.1163 10.9796H22.1563L23.1763 7.00965H23.9063L22.4963 11.9696H21.7263L20.5763 8.18965H20.5463L19.3763 11.9696H18.5963Z" fill="white"/>
</svg>
